<?xml version="1.0" standalone="no"?>
<!DOCTYPE svg PUBLIC "-//W3C//DTD SVG 20010904//EN"
 "http://www.w3.org/TR/2001/REC-SVG-20010904/DTD/svg10.dtd">
<svg version="1.0" xmlns="http://www.w3.org/2000/svg"
 width="513.000000pt" height="513.000000pt" viewBox="0 0 513.000000 513.000000"
 preserveAspectRatio="xMidYMid meet">
<metadata>
Created by potrace 1.11, written by Peter Selinger 2001-2013
</metadata>
<g transform="translate(0.000000,513.000000) scale(0.100000,-0.100000)"
fill="#000000" stroke="none">
<path d="M2368 5125 c-2 -1 -37 -5 -78 -9 -41 -3 -86 -8 -100 -11 -13 -3 -42
-7 -65 -10 -169 -24 -457 -115 -655 -208 -107 -50 -362 -198 -390 -227 -3 -3
-43 -34 -89 -69 -120 -92 -243 -207 -351 -332 -36 -40 -67 -76 -70 -79 -19
-18 -128 -172 -178 -251 -209 -332 -338 -713 -379 -1124 -10 -91 -9 -401 1
-485 4 -36 9 -81 11 -100 3 -19 7 -46 10 -60 3 -14 8 -43 11 -65 9 -61 52
-230 84 -325 226 -684 731 -1244 1387 -1538 194 -87 462 -166 673 -198 131
-19 506 -26 645 -12 263 28 568 112 794 219 57 27 105 49 107 49 12 0 244 144
319 199 354 256 634 590 823 984 29 60 52 114 52 121 0 6 4 16 8 21 17 20 106
290 118 360 3 17 9 46 14 65 4 19 14 69 20 110 6 41 13 86 15 99 27 164 23
516 -7 686 -5 33 -11 69 -13 80 -5 40 -27 142 -47 215 -97 360 -254 666 -502
975 -22 28 -101 111 -176 185 -252 251 -536 437 -862 565 -99 38 -291 99 -352
111 -261 51 -357 61 -593 62 -100 0 -183 -1 -185 -3z"/>
</g>
</svg>
